# xmcd
#
# Track frame offsets: 
#        151
#        19610
#        36891
#        55894
#        74519
#        91674
#        108355
#        126236
#        142689
#        162548
#        175359
#        190156
#
# Disc length: 2780 seconds
#
# Revision: 0
# Processed by: cddbd v1.5.1PL2 Copyright (c) Steve Scherf et al.
# Submitted via: ExactAudioCopy v0.95b4
#
DISCID=9f0ada0c
DTITLE=คณะพิณแคนแดนอีสาน - ดาวรุ่ง 1 
DYEAR=2006
DGENRE=Country
TTITLE0=ตู้โทรโชว์ใจ
TTITLE1=ฝากฟ้าลาอ้าย
TTITLE2=สาว ม.5ครึ่ง
TTITLE3=คึดฮอดหลายอ้าย
TTITLE4=สาวค้างโคก
TTITLE5=งานนี้บ่มีผัว
TTITLE6=สัญญากะต่ายน้อย
TTITLE7=อย่าลืมคนคอย
TTITLE8=ร้องไห้ใต้กกะเดา
TTITLE9=มาโลดโสดคือกัน
TTITLE10=สาวพอกำก่า
TTITLE11=ฮักอีหลีบ่
EXTD=
EXTT0=
EXTT1=
EXTT2=
EXTT3=
EXTT4=
EXTT5=
EXTT6=
EXTT7=
EXTT8=
EXTT9=
EXTT10=
EXTT11=
PLAYORDER=
